<svg width="1172" height="338" viewBox="0 0 1172 338" fill="none" xmlns="http://www.w3.org/2000/svg">
<path fill-rule="evenodd" clip-rule="evenodd" d="M115.693 1.08695C140.013 -1.26571 165.687 1.23868 189.692 8.03923C275.036 32.2188 275.099 152.026 199.128 188.316C161.279 206.396 119.999 207.799 79.1686 194.2C79.132 215.418 76.4567 300.156 82.6078 315.25C85.0708 321.296 89.874 323.512 95.6056 325.883C101.757 327.633 113.702 326.368 114.268 333.859C114.01 334.273 112.495 337.01 111.981 336.998C80.6162 336.269 49.2155 333.873 17.698 336.478C13.5811 336.818 3.57142 337.591 0.606289 336.903C-0.080005 335.274 -0.54975 328.481 1.2977 328.327C20.2241 326.75 30.0103 324.406 32.4384 303.883C34.343 287.792 33.9235 273.218 33.9329 257.069L33.9448 98.8391C33.9482 80.8131 34.3651 62.8587 33.3054 44.8541C31.7359 18.2119 24.9275 15.2413 0.0478769 12.3226L0.426404 2.14565C16.2112 3.14723 33.0983 4.58183 48.8182 4.74549C70.9902 4.97479 93.6081 2.93498 115.693 1.08695ZM118.076 16.438C190.233 11.8376 221.682 66.2002 203.077 133.044C197.445 153.275 182.99 169.461 164.302 178.904C136.759 191.302 106.572 187.559 79.1345 177.102L79.1882 21.8244C93.285 19.1641 103.921 17.4754 118.076 16.438Z" fill="#297670"/>
<path fill-rule="evenodd" clip-rule="evenodd" d="M412.066 336.671C396.064 338.903 370.923 335.8 355.679 330.52C333.488 322.833 313.41 310.145 302.788 288.43C294.663 271.814 293.307 253.696 299.028 236.069C301.526 228.376 308.44 216.909 314.715 212.023C333.189 197.644 357.708 191.359 378.468 181.279C419.321 161.44 460.09 141.384 500.833 121.337C492.085 89.4119 477.993 58.7677 450.908 38.2595C430.2 22.2733 403.924 15.3236 378.024 18.9855C347.239 23.4155 328.048 39.4759 310.068 63.5395C304.876 71.4004 301.253 78.472 297.272 86.9672L286.956 84.2659C292.958 64.0688 302.796 38.4214 309.958 18.157C369.405 -9.15428 447.046 -7.56965 498.607 36.0688C569.701 96.2457 571.977 214.003 513.322 283.554C487.985 314.033 451.539 333.151 412.066 336.671ZM403.498 321.32C392.586 320.77 384.188 319.95 374.009 315.482C360.061 309.489 349.123 298.104 343.701 283.92C335.696 263.149 339.754 241.753 348.475 222.038C385.51 202.562 424.769 183.525 462.306 164.88C476.621 157.604 491.02 150.493 505.505 143.551C516.102 217.772 492.682 315.547 403.498 321.32Z" fill="#297670"/>
<path d="M751.821 7.5234C768.105 6.30104 787.167 8.46362 798.651 21.4203C804.678 28.2967 807.722 37.2939 807.083 46.4173C804.295 89.0584 741.207 88.3901 746.143 40.8527C707.472 32.5187 676.602 65.715 673.14 102.505C672.202 112.416 672.833 124.28 672.842 134.365L672.927 190.673C672.944 221.052 672.501 256.773 673.208 286.864C674.24 330.797 709.91 312.811 713.661 324.451C713.235 327.113 713.15 327.431 711.564 329.604C705.81 330.21 688.136 328.84 681.018 328.496C667.113 327.822 653.182 327.612 639.26 327.868C623.036 328.391 602.899 328.752 586.931 330.177L586.829 320.241C620.999 319.806 623.898 306.616 624.793 275.287C625.1 264.619 625.031 253.704 625.048 243.012L625.117 176.727L625.151 102.37C625.151 84.7077 627.018 51.6792 620.325 34.8142C616.728 25.7377 600.828 23.6621 592.771 22.9376C590.913 22.7697 589.31 20.4153 588.415 18.7573C588.398 15.1891 588.023 16.5922 589.932 13.4605C594.707 12.5049 621.323 14.468 628.007 14.5677C643.191 14.6572 658.366 14.127 673.507 12.9763C673.336 28.8235 673.541 45.0423 673.567 60.9202C690.924 29.6759 716.134 11.3414 751.821 7.5234Z" fill="#297670"/>
<path fill-rule="evenodd" clip-rule="evenodd" d="M981.929 0.732156C997.931 -1.49946 1023.07 1.60332 1038.32 6.88317C1060.51 14.5702 1080.58 27.2584 1091.21 48.9736C1099.33 65.5888 1100.69 83.7077 1094.97 101.334C1092.47 109.028 1085.56 120.494 1079.28 125.38C1060.81 139.76 1036.29 146.045 1015.53 156.124C974.674 175.963 933.905 196.019 893.163 216.066C901.91 247.991 916.002 278.636 943.087 299.144C963.796 315.13 990.071 322.08 1015.97 318.418C1046.76 313.988 1065.95 297.927 1083.93 273.864C1089.12 266.003 1092.74 258.931 1096.72 250.436L1107.04 253.137C1101.04 273.335 1091.2 298.982 1084.04 319.246C1024.59 346.558 946.949 344.973 895.388 301.335C824.294 241.158 822.018 123.4 880.673 53.8494C906.01 23.3705 942.456 4.25262 981.929 0.732156ZM990.497 16.0833C1001.41 16.6331 1009.81 17.4531 1019.99 21.9214C1033.93 27.9147 1044.87 39.2996 1050.29 53.4837C1058.3 74.2544 1054.24 95.65 1045.52 115.365C1008.49 134.841 969.226 153.878 931.689 172.523C917.375 179.799 902.975 186.91 888.49 193.852C877.893 119.631 901.313 21.8566 990.497 16.0833Z" fill="#297670"/>
</svg>
